<svg width="800" height="600" xmlns="http://www.w3.org/2000/svg">

 <g>
  <title>Layer 1</title>
  <path d="m76,250c2,-4 13.96505,-19.5612 48,-41c29.17607,-18.37817 55.98027,-31.49983 75,-32c16.99413,-0.4469 43.46339,6.08144 60,15c50.5687,27.27283 85.5145,55.43872 117,67c47.35635,17.38895 63.25378,17.3736 87,9c26.69107,-9.41202 59.36084,-52.22401 80,-90c12.8653,-23.54747 11.58582,-28 13,-28c2.82843,0 3,13 3,35c0,25 2.1153,49.07726 0,78c-2.50665,34.27414 -10.63446,69.96381 -31,101c-23.39206,35.64844 -62.18356,72.39069 -114,99c-68.09647,34.9696 -117.00336,32.73914 -153,18c-33.1091,-13.55682 -54.48225,-30.18265 -73,-49c-16.55386,-16.82172 -29.64879,-29.22311 -45,-53c-11.73409,-18.17447 -33.46444,-52.39847 -46,-85c-10.21424,-26.56442 -17,-49 -21,-61l-1,-7l0,-1" id="svg_5" stroke="#000" fill="none"/>
 </g>
</svg>