<?xml version="1.0" encoding="iso-8859-1"?>
<!-- Uploaded to: SVG Repo, www.svgrepo.com, Generator: SVG Repo Mixer Tools -->
<svg height="800px" width="800px" version="1.1" id="Capa_1" xmlns="http://www.w3.org/2000/svg" xmlns:xlink="http://www.w3.org/1999/xlink" 
	 viewBox="0 0 25.904 25.904" xml:space="preserve">
<g>
	<path style="fill:#030104;" d="M25.218,5.982c-0.91-1.74-2.37-2.728-3.299-2.246c-0.076,0.04-0.132,0.109-0.196,0.165
		c0,0-10.702,9.56-20.708,11.896c0,0-0.195,0.073-0.286,0.121C0.433,16.072,0.216,16.35,0.1,16.72
		c-0.25,0.795-0.023,2.017,0.589,3.188c0.745,1.424,1.848,2.381,2.745,2.381c0.199,0,0.386-0.045,0.556-0.134
		c0.082-0.043,0.148-0.106,0.216-0.168c0,0,3.767-3.362,8.919-6.585c-0.169,0.871-0.535,2.128-1.321,3.102l1.254-0.509l0.686,0.795
		c0,0,0.904-1.279,1.138-3.031c1.619,0.717,3.187,0.609,3.187,0.609l-0.32-0.999l1.088-0.805c-1.285,0.169-2.594-0.206-3.422-0.524
		c2.986-1.69,6.28-3.193,9.504-3.946c0,0,0.178-0.075,0.263-0.12C26.13,9.475,26.146,7.758,25.218,5.982z M3.533,21.284
		c-0.286,0.151-1.234-0.418-1.973-1.832c-0.556-1.063-0.663-1.991-0.522-2.439c0.025-0.08,0.071-0.186,0.146-0.224
		c0.027-0.015,0.06-0.021,0.1-0.021c0.375,0,1.204,0.574,1.871,1.851C3.884,20.012,3.813,21.137,3.533,21.284z M4.027,18.163
		c-0.396-0.757-0.899-1.36-1.416-1.774c3.076-0.896,6.217-2.433,9.067-4.105c0.522,0.504,1.045,1.196,1.253,2.083
		c-3.7,2.296-6.706,4.695-8.239,5.989C4.648,19.699,4.433,18.94,4.027,18.163z M24.723,9.103c-0.042,0.021-0.171,0.05-0.167,0.071
		c-3.392,0.812-6.787,2.382-9.834,4.127c-0.302-0.837-0.765-1.538-1.27-2.097c5.164-3.255,8.997-6.618,9.021-6.618
		c0.375,0,1.205,0.574,1.872,1.851C25.075,7.831,25.004,8.956,24.723,9.103z"/>
</g>
</svg>